<svg width="256" height="256" xmlns="http://www.w3.org/2000/svg">
  <defs>
  
    # Masks
    <mask id="brick_0_sh">
      <rect stroke="none" rx="2.5671531270254406" ry="2.5671531270254406" x="31.22458887414995" y="4.038000987322654" width="47.652281632776415" height="27.489599210141876" fill="#ffffff"/>
      <rect stroke="none" rx="2.5671531270254406" ry="2.5671531270254406" x="31.22458887414995" y="4.038000987322654" width="46.06569374594912" height="25.90301132331458" fill="#000000"/>
    </mask>
    <mask id="brick_0_hl">
      <rect stroke="none" rx="2.5671531270254406" ry="2.5671531270254406" x="31.22458887414995" y="4.038000987322654" width="47.652281632776415" height="27.489599210141876" fill="#ffffff"/>
      <rect stroke="none" rx="2.5671531270254406" ry="2.5671531270254406" x="33.79174200117539" y="8.191742001175394" width="45.08512850575097" height="23.335858196289138" fill="#000000"/>
    </mask>
    <mask id="brick_1_sh">
      <rect stroke="none" rx="2.5671531270254406" ry="2.5671531270254406" x="104.1738591836118" y="4.038000987322654" width="47.652281632776415" height="27.489599210141876" fill="#ffffff"/>
      <rect stroke="none" rx="2.5671531270254406" ry="2.5671531270254406" x="104.1738591836118" y="4.038000987322654" width="46.06569374594912" height="25.90301132331458" fill="#000000"/>
    </mask>
    <mask id="brick_1_hl">
      <rect stroke="none" rx="2.5671531270254406" ry="2.5671531270254406" x="104.1738591836118" y="4.038000987322654" width="47.652281632776415" height="27.489599210141876" fill="#ffffff"/>
      <rect stroke="none" rx="2.5671531270254406" ry="2.5671531270254406" x="106.74101231063723" y="8.191742001175394" width="45.08512850575097" height="23.335858196289138" fill="#000000"/>
    </mask>
    <mask id="brick_2_sh">
      <rect stroke="none" rx="2.5671531270254406" ry="2.5671531270254406" x="177.12312949307363" y="4.038000987322654" width="47.652281632776415" height="27.489599210141876" fill="#ffffff"/>
      <rect stroke="none" rx="2.5671531270254406" ry="2.5671531270254406" x="177.12312949307363" y="4.038000987322654" width="46.06569374594912" height="25.90301132331458" fill="#000000"/>
    </mask>
    <mask id="brick_2_hl">
      <rect stroke="none" rx="2.5671531270254406" ry="2.5671531270254406" x="177.12312949307363" y="4.038000987322654" width="47.652281632776415" height="27.489599210141876" fill="#ffffff"/>
      <rect stroke="none" rx="2.5671531270254406" ry="2.5671531270254406" x="179.69028262009908" y="8.191742001175394" width="45.08512850575097" height="23.335858196289138" fill="#000000"/>
    </mask>
    <mask id="brick_3_sh">
      <rect stroke="none" rx="2.5671531270254406" ry="2.5671531270254406" x="43.68581191570817" y="36.661906451515414" width="38.306364351607755" height="36.7776464780455" fill="#ffffff"/>
      <rect stroke="none" rx="2.5671531270254406" ry="2.5671531270254406" x="43.68581191570817" y="36.661906451515414" width="36.71977646478045" height="35.1910585912182" fill="#000000"/>
    </mask>
    <mask id="brick_3_hl">
      <rect stroke="none" rx="2.5671531270254406" ry="2.5671531270254406" x="43.68581191570817" y="36.661906451515414" width="38.306364351607755" height="36.7776464780455" fill="#ffffff"/>
      <rect stroke="none" rx="2.5671531270254406" ry="2.5671531270254406" x="46.252965042733614" y="40.81564746536815" width="35.73921122458231" height="32.62390546419276" fill="#000000"/>
    </mask>
    <mask id="brick_4_sh">
      <rect stroke="none" rx="2.5671531270254406" ry="2.5671531270254406" x="87.12648252136681" y="36.661906451515414" width="38.306364351607755" height="36.7776464780455" fill="#ffffff"/>
      <rect stroke="none" rx="2.5671531270254406" ry="2.5671531270254406" x="87.12648252136681" y="36.661906451515414" width="36.71977646478045" height="35.1910585912182" fill="#000000"/>
    </mask>
    <mask id="brick_4_hl">
      <rect stroke="none" rx="2.5671531270254406" ry="2.5671531270254406" x="87.12648252136681" y="36.661906451515414" width="38.306364351607755" height="36.7776464780455" fill="#ffffff"/>
      <rect stroke="none" rx="2.5671531270254406" ry="2.5671531270254406" x="89.69363564839225" y="40.81564746536815" width="35.73921122458231" height="32.62390546419276" fill="#000000"/>
    </mask>
    <mask id="brick_5_sh">
      <rect stroke="none" rx="2.5671531270254406" ry="2.5671531270254406" x="130.56715312702545" y="36.661906451515414" width="38.306364351607755" height="36.7776464780455" fill="#ffffff"/>
      <rect stroke="none" rx="2.5671531270254406" ry="2.5671531270254406" x="130.56715312702545" y="36.661906451515414" width="36.71977646478045" height="35.1910585912182" fill="#000000"/>
    </mask>
    <mask id="brick_5_hl">
      <rect stroke="none" rx="2.5671531270254406" ry="2.5671531270254406" x="130.56715312702545" y="36.661906451515414" width="38.306364351607755" height="36.7776464780455" fill="#ffffff"/>
      <rect stroke="none" rx="2.5671531270254406" ry="2.5671531270254406" x="133.13430625405087" y="40.81564746536815" width="35.73921122458231" height="32.62390546419276" fill="#000000"/>
    </mask>
    <mask id="brick_6_sh">
      <rect stroke="none" rx="2.5671531270254406" ry="2.5671531270254406" x="174.00782373268407" y="36.661906451515414" width="38.306364351607755" height="36.7776464780455" fill="#ffffff"/>
      <rect stroke="none" rx="2.5671531270254406" ry="2.5671531270254406" x="174.00782373268407" y="36.661906451515414" width="36.71977646478045" height="35.1910585912182" fill="#000000"/>
    </mask>
    <mask id="brick_6_hl">
      <rect stroke="none" rx="2.5671531270254406" ry="2.5671531270254406" x="174.00782373268407" y="36.661906451515414" width="38.306364351607755" height="36.7776464780455" fill="#ffffff"/>
      <rect stroke="none" rx="2.5671531270254406" ry="2.5671531270254406" x="176.57497685970952" y="40.81564746536815" width="35.73921122458231" height="32.62390546419276" fill="#000000"/>
    </mask>
    <mask id="brick_7_sh">
      <rect stroke="none" rx="2.5671531270254406" ry="2.5671531270254406" x="43.68581191570817" y="78.57385918361179" width="17.970071889178087" height="36.7776464780455" fill="#ffffff"/>
      <rect stroke="none" rx="2.5671531270254406" ry="2.5671531270254406" x="43.68581191570817" y="78.57385918361179" width="16.383484002350787" height="35.1910585912182" fill="#000000"/>
    </mask>
    <mask id="brick_7_hl">
      <rect stroke="none" rx="2.5671531270254406" ry="2.5671531270254406" x="43.68581191570817" y="78.57385918361179" width="17.970071889178087" height="36.7776464780455" fill="#ffffff"/>
      <rect stroke="none" rx="2.5671531270254406" ry="2.5671531270254406" x="46.252965042733614" y="82.72760019746453" width="15.402918762152645" height="32.62390546419276" fill="#000000"/>
    </mask>
    <mask id="brick_8_sh">
      <rect stroke="none" rx="2.5671531270254406" ry="2.5671531270254406" x="66.79019005893714" y="78.57385918361179" width="32.24936287062377" height="36.7776464780455" fill="#ffffff"/>
      <rect stroke="none" rx="2.5671531270254406" ry="2.5671531270254406" x="66.79019005893714" y="78.57385918361179" width="30.662774983796474" height="35.1910585912182" fill="#000000"/>
    </mask>
    <mask id="brick_8_hl">
      <rect stroke="none" rx="2.5671531270254406" ry="2.5671531270254406" x="66.79019005893714" y="78.57385918361179" width="32.24936287062377" height="36.7776464780455" fill="#ffffff"/>
      <rect stroke="none" rx="2.5671531270254406" ry="2.5671531270254406" x="69.35734318596258" y="82.72760019746453" width="29.68220974359833" height="32.62390546419276" fill="#000000"/>
    </mask>
    <mask id="brick_9_sh">
      <rect stroke="none" rx="2.5671531270254406" ry="2.5671531270254406" x="43.68581191570817" y="120.48581191570817" width="38.306364351607755" height="36.7776464780455" fill="#ffffff"/>
      <rect stroke="none" rx="2.5671531270254406" ry="2.5671531270254406" x="43.68581191570817" y="120.48581191570817" width="36.71977646478045" height="35.1910585912182" fill="#000000"/>
    </mask>
    <mask id="brick_9_hl">
      <rect stroke="none" rx="2.5671531270254406" ry="2.5671531270254406" x="43.68581191570817" y="120.48581191570817" width="38.306364351607755" height="36.7776464780455" fill="#ffffff"/>
      <rect stroke="none" rx="2.5671531270254406" ry="2.5671531270254406" x="46.252965042733614" y="124.6395529295609" width="35.73921122458231" height="32.62390546419276" fill="#000000"/>
    </mask>
    <mask id="brick_10_sh">
      <rect stroke="none" rx="2.5671531270254406" ry="2.5671531270254406" x="87.12648252136681" y="120.48581191570817" width="38.306364351607755" height="36.7776464780455" fill="#ffffff"/>
      <rect stroke="none" rx="2.5671531270254406" ry="2.5671531270254406" x="87.12648252136681" y="120.48581191570817" width="36.71977646478045" height="35.1910585912182" fill="#000000"/>
    </mask>
    <mask id="brick_10_hl">
      <rect stroke="none" rx="2.5671531270254406" ry="2.5671531270254406" x="87.12648252136681" y="120.48581191570817" width="38.306364351607755" height="36.7776464780455" fill="#ffffff"/>
      <rect stroke="none" rx="2.5671531270254406" ry="2.5671531270254406" x="89.69363564839225" y="124.6395529295609" width="35.73921122458231" height="32.62390546419276" fill="#000000"/>
    </mask>
    <mask id="brick_11_sh">
      <polygon stroke-width="5.134306254050881" stroke-linejoin="round" fill="#ffffff" stroke="#ffffff" points="133.134306254051,123.052965042734 133.134306254051,154.696305266728 143.390619713290,154.696305266728 155.851842754848,162.397764647805 169.421670111997,162.397764647805 169.421670111997,115.351505661657 155.851842754848,115.351505661657 143.390619713290,123.052965042734"/>
      <polygon stroke-width="5.134306254050881" stroke-linejoin="round" fill="#000000" stroke="#000000" points="133.134306254051,123.052965042734 133.134306254051,153.109717379901 143.390619713290,153.109717379901 155.851842754848,160.811176760977 167.835082225170,160.811176760977 167.835082225170,115.351505661657 155.851842754848,115.351505661657 143.390619713290,123.052965042734"/>
    </mask>
    <mask id="brick_11_hl">
      <polygon stroke-width="5.134306254050881" stroke-linejoin="round" fill="#ffffff" stroke="#ffffff" points="133.134306254051,123.052965042734 133.134306254051,154.696305266728 143.390619713290,154.696305266728 155.851842754848,162.397764647805 169.421670111997,162.397764647805 169.421670111997,115.351505661657 155.851842754848,115.351505661657 143.390619713290,123.052965042734"/>
      <polygon stroke-width="5.134306254050881" stroke-linejoin="round" fill="#000000" stroke="#000000" points="135.701459381076,127.206706056586 135.701459381076,154.696305266728 145.957772840315,154.696305266728 158.418995881874,162.397764647805 169.421670111997,162.397764647805 169.421670111997,119.505246675510 158.418995881874,119.505246675510 145.957772840315,127.206706056586"/>
    </mask>
    <mask id="brick_12_sh">
      <rect stroke="none" rx="2.5671531270254406" ry="2.5671531270254406" x="43.68581191570817" y="162.39776464780454" width="17.970071889178087" height="36.7776464780455" fill="#ffffff"/>
      <rect stroke="none" rx="2.5671531270254406" ry="2.5671531270254406" x="43.68581191570817" y="162.39776464780454" width="16.383484002350787" height="35.1910585912182" fill="#000000"/>
    </mask>
    <mask id="brick_12_hl">
      <rect stroke="none" rx="2.5671531270254406" ry="2.5671531270254406" x="43.68581191570817" y="162.39776464780454" width="17.970071889178087" height="36.7776464780455" fill="#ffffff"/>
      <rect stroke="none" rx="2.5671531270254406" ry="2.5671531270254406" x="46.252965042733614" y="166.5515056616573" width="15.402918762152645" height="32.62390546419276" fill="#000000"/>
    </mask>
    <mask id="brick_13_sh">
      <rect stroke="none" rx="2.5671531270254406" ry="2.5671531270254406" x="66.79019005893714" y="162.39776464780454" width="32.24936287062377" height="36.7776464780455" fill="#ffffff"/>
      <rect stroke="none" rx="2.5671531270254406" ry="2.5671531270254406" x="66.79019005893714" y="162.39776464780454" width="30.662774983796474" height="35.1910585912182" fill="#000000"/>
    </mask>
    <mask id="brick_13_hl">
      <rect stroke="none" rx="2.5671531270254406" ry="2.5671531270254406" x="66.79019005893714" y="162.39776464780454" width="32.24936287062377" height="36.7776464780455" fill="#ffffff"/>
      <rect stroke="none" rx="2.5671531270254406" ry="2.5671531270254406" x="69.35734318596258" y="166.5515056616573" width="29.68220974359833" height="32.62390546419276" fill="#000000"/>
    </mask>
    <mask id="brick_14_sh">
      <polygon stroke-width="5.134306254050881" stroke-linejoin="round" fill="#ffffff" stroke="#ffffff" points="43.9812220087964,206.876870506926 33.7917420011754,223.363795486945 33.7917420011754,249.394845885652 108.933622844094,249.394845885652 108.933622844094,223.363795486945 98.7441428364727,206.876870506926"/>
      <polygon stroke-width="5.134306254050881" stroke-linejoin="round" fill="#000000" stroke="#000000" points="43.9812220087964,206.876870506926 33.7917420011754,223.363795486945 33.7917420011754,247.808257998825 107.347034957266,247.808257998825 107.347034957266,223.363795486945 97.1575549496454,206.876870506926"/>
    </mask>
    <mask id="brick_14_hl">
      <polygon stroke-width="5.134306254050881" stroke-linejoin="round" fill="#ffffff" stroke="#ffffff" points="43.9812220087964,206.876870506926 33.7917420011754,223.363795486945 33.7917420011754,249.394845885652 108.933622844094,249.394845885652 108.933622844094,223.363795486945 98.7441428364727,206.876870506926"/>
      <polygon stroke-width="5.134306254050881" stroke-linejoin="round" fill="#000000" stroke="#000000" points="46.5483751358218,211.030611520779 36.3588951282008,227.517536500797 36.3588951282008,249.394845885652 108.933622844094,249.394845885652 108.933622844094,227.517536500797 98.7441428364727,211.030611520779"/>
    </mask>
  </defs>
  
  # Mortar
  <polygon points="28.657435747124513,1.4708478602972133 28.657435747124513,34.09475332448997 41.11865878868273,54.25743574712451 41.11865878868273,201.7425642528755 28.657435747124513,221.90524667551003 28.657435747124513,254.52915213970277 114.06792909814457,254.52915213970277 114.06792909814457,221.90524667551003 101.60670605658635,201.7425642528755 101.60670605658635,159.83061152077912 141.93207090185544,159.83061152077912 154.39329394341365,167.53207090185543 174.55597636604818,167.53207090185543 174.55597636604818,110.2171994076064 154.39329394341365,110.2171994076064 141.93207090185544,117.91865878868273 101.60670605658635,117.91865878868273 101.60670605658635,76.00670605658635 214.88134121131728,76.00670605658635 214.88134121131728,54.25743574712451 227.3425642528755,34.09475332448997 227.3425642528755,1.4708478602972133 174.55597636604818,1.4708478602972133 174.55597636604818,34.09475332448997 154.39329394341365,34.09475332448997 154.39329394341365,1.4708478602972133 101.60670605658635,1.4708478602972133 101.60670605658635,34.09475332448997 81.44402363395182,34.09475332448997 81.44402363395182,1.4708478602972133" fill="#3b286b" stroke="#000000" stroke-width="2.9416957205944265" stroke-linejoin="round"/>
  
  # Bricks
  <rect stroke="none" rx="2.5671531270254406" ry="2.5671531270254406" x="31.22458887414995" y="4.038000987322654" width="47.652281632776415" height="27.489599210141876" fill="#734f96"/>
  <rect stroke="none" rx="2.5671531270254406" ry="2.5671531270254406" x="104.1738591836118" y="4.038000987322654" width="47.652281632776415" height="27.489599210141876" fill="#734f96"/>
  <rect stroke="none" rx="2.5671531270254406" ry="2.5671531270254406" x="177.12312949307363" y="4.038000987322654" width="47.652281632776415" height="27.489599210141876" fill="#734f96"/>
  <rect stroke="none" rx="2.5671531270254406" ry="2.5671531270254406" x="43.68581191570817" y="36.661906451515414" width="38.306364351607755" height="36.7776464780455" fill="#734f96"/>
  <rect stroke="none" rx="2.5671531270254406" ry="2.5671531270254406" x="87.12648252136681" y="36.661906451515414" width="38.306364351607755" height="36.7776464780455" fill="#734f96"/>
  <rect stroke="none" rx="2.5671531270254406" ry="2.5671531270254406" x="130.56715312702545" y="36.661906451515414" width="38.306364351607755" height="36.7776464780455" fill="#734f96"/>
  <rect stroke="none" rx="2.5671531270254406" ry="2.5671531270254406" x="174.00782373268407" y="36.661906451515414" width="38.306364351607755" height="36.7776464780455" fill="#734f96"/>
  <rect stroke="none" rx="2.5671531270254406" ry="2.5671531270254406" x="43.68581191570817" y="78.57385918361179" width="17.970071889178087" height="36.7776464780455" fill="#734f96"/>
  <rect stroke="none" rx="2.5671531270254406" ry="2.5671531270254406" x="66.79019005893714" y="78.57385918361179" width="32.24936287062377" height="36.7776464780455" fill="#734f96"/>
  <rect stroke="none" rx="2.5671531270254406" ry="2.5671531270254406" x="43.68581191570817" y="120.48581191570817" width="38.306364351607755" height="36.7776464780455" fill="#734f96"/>
  <rect stroke="none" rx="2.5671531270254406" ry="2.5671531270254406" x="87.12648252136681" y="120.48581191570817" width="38.306364351607755" height="36.7776464780455" fill="#734f96"/>
  <polygon stroke-width="5.134306254050881" stroke-linejoin="round" fill="#734f96" stroke="#734f96" points="133.134306254051,123.052965042734 133.134306254051,154.696305266728 143.390619713290,154.696305266728 155.851842754848,162.397764647805 169.421670111997,162.397764647805 169.421670111997,115.351505661657 155.851842754848,115.351505661657 143.390619713290,123.052965042734"/>
  <rect stroke="none" rx="2.5671531270254406" ry="2.5671531270254406" x="43.68581191570817" y="162.39776464780454" width="17.970071889178087" height="36.7776464780455" fill="#734f96"/>
  <rect stroke="none" rx="2.5671531270254406" ry="2.5671531270254406" x="66.79019005893714" y="162.39776464780454" width="32.24936287062377" height="36.7776464780455" fill="#734f96"/>
  <polygon stroke-width="5.134306254050881" stroke-linejoin="round" fill="#734f96" stroke="#734f96" points="43.9812220087964,206.876870506926 33.7917420011754,223.363795486945 33.7917420011754,249.394845885652 108.933622844094,249.394845885652 108.933622844094,223.363795486945 98.7441428364727,206.876870506926"/>
  
  # Shadows
  <rect stroke="none" rx="2.5671531270254406" ry="2.5671531270254406" x="33.79174200117539" y="8.191742001175394" width="45.08512850575097" height="23.335858196289138" fill="#650fd6" mask="url(#brick_0_sh)"/>
  <rect stroke="none" rx="2.5671531270254406" ry="2.5671531270254406" x="106.74101231063723" y="8.191742001175394" width="45.08512850575097" height="23.335858196289138" fill="#650fd6" mask="url(#brick_1_sh)"/>
  <rect stroke="none" rx="2.5671531270254406" ry="2.5671531270254406" x="179.69028262009908" y="8.191742001175394" width="45.08512850575097" height="23.335858196289138" fill="#650fd6" mask="url(#brick_2_sh)"/>
  <rect stroke="none" rx="2.5671531270254406" ry="2.5671531270254406" x="46.252965042733614" y="40.81564746536815" width="35.73921122458231" height="32.62390546419276" fill="#650fd6" mask="url(#brick_3_sh)"/>
  <rect stroke="none" rx="2.5671531270254406" ry="2.5671531270254406" x="89.69363564839225" y="40.81564746536815" width="35.73921122458231" height="32.62390546419276" fill="#650fd6" mask="url(#brick_4_sh)"/>
  <rect stroke="none" rx="2.5671531270254406" ry="2.5671531270254406" x="133.13430625405087" y="40.81564746536815" width="35.73921122458231" height="32.62390546419276" fill="#650fd6" mask="url(#brick_5_sh)"/>
  <rect stroke="none" rx="2.5671531270254406" ry="2.5671531270254406" x="176.57497685970952" y="40.81564746536815" width="35.73921122458231" height="32.62390546419276" fill="#650fd6" mask="url(#brick_6_sh)"/>
  <rect stroke="none" rx="2.5671531270254406" ry="2.5671531270254406" x="46.252965042733614" y="82.72760019746453" width="15.402918762152645" height="32.62390546419276" fill="#650fd6" mask="url(#brick_7_sh)"/>
  <rect stroke="none" rx="2.5671531270254406" ry="2.5671531270254406" x="69.35734318596258" y="82.72760019746453" width="29.68220974359833" height="32.62390546419276" fill="#650fd6" mask="url(#brick_8_sh)"/>
  <rect stroke="none" rx="2.5671531270254406" ry="2.5671531270254406" x="46.252965042733614" y="124.6395529295609" width="35.73921122458231" height="32.62390546419276" fill="#650fd6" mask="url(#brick_9_sh)"/>
  <rect stroke="none" rx="2.5671531270254406" ry="2.5671531270254406" x="89.69363564839225" y="124.6395529295609" width="35.73921122458231" height="32.62390546419276" fill="#650fd6" mask="url(#brick_10_sh)"/>
  <polygon stroke-width="5.134306254050881" stroke-linejoin="round" fill="#650fd6" stroke="#650fd6" points="135.701459381076,127.206706056586 135.701459381076,154.696305266728 145.957772840315,154.696305266728 158.418995881874,162.397764647805 169.421670111997,162.397764647805 169.421670111997,119.505246675510 158.418995881874,119.505246675510 145.957772840315,127.206706056586" mask="url(#brick_11_sh)"/>
  <rect stroke="none" rx="2.5671531270254406" ry="2.5671531270254406" x="46.252965042733614" y="166.5515056616573" width="15.402918762152645" height="32.62390546419276" fill="#650fd6" mask="url(#brick_12_sh)"/>
  <rect stroke="none" rx="2.5671531270254406" ry="2.5671531270254406" x="69.35734318596258" y="166.5515056616573" width="29.68220974359833" height="32.62390546419276" fill="#650fd6" mask="url(#brick_13_sh)"/>
  <polygon stroke-width="5.134306254050881" stroke-linejoin="round" fill="#650fd6" stroke="#650fd6" points="46.5483751358218,211.030611520779 36.3588951282008,227.517536500797 36.3588951282008,249.394845885652 108.933622844094,249.394845885652 108.933622844094,227.517536500797 98.7441428364727,211.030611520779" mask="url(#brick_14_sh)"/>
  
  # Highlights
  <rect stroke="none" rx="2.5671531270254406" ry="2.5671531270254406" x="31.22458887414995" y="4.038000987322654" width="46.06569374594912" height="25.90301132331458" fill="#b657da" mask="url(#brick_0_hl)"/>
  <rect stroke="none" rx="2.5671531270254406" ry="2.5671531270254406" x="104.1738591836118" y="4.038000987322654" width="46.06569374594912" height="25.90301132331458" fill="#b657da" mask="url(#brick_1_hl)"/>
  <rect stroke="none" rx="2.5671531270254406" ry="2.5671531270254406" x="177.12312949307363" y="4.038000987322654" width="46.06569374594912" height="25.90301132331458" fill="#b657da" mask="url(#brick_2_hl)"/>
  <rect stroke="none" rx="2.5671531270254406" ry="2.5671531270254406" x="43.68581191570817" y="36.661906451515414" width="36.71977646478045" height="35.1910585912182" fill="#b657da" mask="url(#brick_3_hl)"/>
  <rect stroke="none" rx="2.5671531270254406" ry="2.5671531270254406" x="87.12648252136681" y="36.661906451515414" width="36.71977646478045" height="35.1910585912182" fill="#b657da" mask="url(#brick_4_hl)"/>
  <rect stroke="none" rx="2.5671531270254406" ry="2.5671531270254406" x="130.56715312702545" y="36.661906451515414" width="36.71977646478045" height="35.1910585912182" fill="#b657da" mask="url(#brick_5_hl)"/>
  <rect stroke="none" rx="2.5671531270254406" ry="2.5671531270254406" x="174.00782373268407" y="36.661906451515414" width="36.71977646478045" height="35.1910585912182" fill="#b657da" mask="url(#brick_6_hl)"/>
  <rect stroke="none" rx="2.5671531270254406" ry="2.5671531270254406" x="43.68581191570817" y="78.57385918361179" width="16.383484002350787" height="35.1910585912182" fill="#b657da" mask="url(#brick_7_hl)"/>
  <rect stroke="none" rx="2.5671531270254406" ry="2.5671531270254406" x="66.79019005893714" y="78.57385918361179" width="30.662774983796474" height="35.1910585912182" fill="#b657da" mask="url(#brick_8_hl)"/>
  <rect stroke="none" rx="2.5671531270254406" ry="2.5671531270254406" x="43.68581191570817" y="120.48581191570817" width="36.71977646478045" height="35.1910585912182" fill="#b657da" mask="url(#brick_9_hl)"/>
  <rect stroke="none" rx="2.5671531270254406" ry="2.5671531270254406" x="87.12648252136681" y="120.48581191570817" width="36.71977646478045" height="35.1910585912182" fill="#b657da" mask="url(#brick_10_hl)"/>
  <polygon stroke-width="5.134306254050881" stroke-linejoin="round" fill="#b657da" stroke="#b657da" points="133.134306254051,123.052965042734 133.134306254051,153.109717379901 143.390619713290,153.109717379901 155.851842754848,160.811176760977 167.835082225170,160.811176760977 167.835082225170,115.351505661657 155.851842754848,115.351505661657 143.390619713290,123.052965042734" mask="url(#brick_11_hl)"/>
  <rect stroke="none" rx="2.5671531270254406" ry="2.5671531270254406" x="43.68581191570817" y="162.39776464780454" width="16.383484002350787" height="35.1910585912182" fill="#b657da" mask="url(#brick_12_hl)"/>
  <rect stroke="none" rx="2.5671531270254406" ry="2.5671531270254406" x="66.79019005893714" y="162.39776464780454" width="30.662774983796474" height="35.1910585912182" fill="#b657da" mask="url(#brick_13_hl)"/>
  <polygon stroke-width="5.134306254050881" stroke-linejoin="round" fill="#b657da" stroke="#b657da" points="43.9812220087964,206.876870506926 33.7917420011754,223.363795486945 33.7917420011754,247.808257998825 107.347034957266,247.808257998825 107.347034957266,223.363795486945 97.1575549496454,206.876870506926" mask="url(#brick_14_hl)"/>
  
  # Corner highlights
  <circle cx="33.79174200117539" cy="6.605154114348094" r="2.5671531270254406" fill="#ffa3d5" stroke="none"/>
  <circle cx="106.74101231063723" cy="6.605154114348094" r="2.5671531270254406" fill="#ffa3d5" stroke="none"/>
  <circle cx="179.69028262009908" cy="6.605154114348094" r="2.5671531270254406" fill="#ffa3d5" stroke="none"/>
  <circle cx="46.252965042733614" cy="39.229059578540856" r="2.5671531270254406" fill="#ffa3d5" stroke="none"/>
  <circle cx="89.69363564839225" cy="39.229059578540856" r="2.5671531270254406" fill="#ffa3d5" stroke="none"/>
  <circle cx="133.13430625405087" cy="39.229059578540856" r="2.5671531270254406" fill="#ffa3d5" stroke="none"/>
  <circle cx="176.57497685970952" cy="39.229059578540856" r="2.5671531270254406" fill="#ffa3d5" stroke="none"/>
  <circle cx="46.252965042733614" cy="81.14101231063724" r="2.5671531270254406" fill="#ffa3d5" stroke="none"/>
  <circle cx="69.35734318596258" cy="81.14101231063724" r="2.5671531270254406" fill="#ffa3d5" stroke="none"/>
  <circle cx="46.252965042733614" cy="123.05296504273362" r="2.5671531270254406" fill="#ffa3d5" stroke="none"/>
  <circle cx="89.69363564839225" cy="123.05296504273362" r="2.5671531270254406" fill="#ffa3d5" stroke="none"/>
  <circle cx="133.134306254051" cy="123.052965042734" r="2.5671531270254406" fill="#ffa3d5" stroke="none"/>
  <circle cx="46.252965042733614" cy="164.96491777482998" r="2.5671531270254406" fill="#ffa3d5" stroke="none"/>
  <circle cx="69.35734318596258" cy="164.96491777482998" r="2.5671531270254406" fill="#ffa3d5" stroke="none"/>
  <circle cx="43.9812220087964" cy="206.876870506926" r="2.5671531270254406" fill="#ffa3d5" stroke="none"/>
  
  # Brick front surfaces
  <rect stroke="none" rx="2.5671531270254406" ry="2.5671531270254406" x="33.79174200117539" y="8.191742001175394" width="43.49854061892368" height="21.74927030946184" fill="#734f96"/>
  <rect stroke="none" rx="2.5671531270254406" ry="2.5671531270254406" x="106.74101231063723" y="8.191742001175394" width="43.49854061892368" height="21.74927030946184" fill="#734f96"/>
  <rect stroke="none" rx="2.5671531270254406" ry="2.5671531270254406" x="179.69028262009908" y="8.191742001175394" width="43.49854061892368" height="21.74927030946184" fill="#734f96"/>
  <rect stroke="none" rx="2.5671531270254406" ry="2.5671531270254406" x="46.252965042733614" y="40.81564746536815" width="34.15262333775502" height="31.03731757736546" fill="#734f96"/>
  <rect stroke="none" rx="2.5671531270254406" ry="2.5671531270254406" x="89.69363564839225" y="40.81564746536815" width="34.15262333775502" height="31.03731757736546" fill="#734f96"/>
  <rect stroke="none" rx="2.5671531270254406" ry="2.5671531270254406" x="133.13430625405087" y="40.81564746536815" width="34.15262333775502" height="31.03731757736546" fill="#734f96"/>
  <rect stroke="none" rx="2.5671531270254406" ry="2.5671531270254406" x="176.57497685970952" y="40.81564746536815" width="34.15262333775502" height="31.03731757736546" fill="#734f96"/>
  <rect stroke="none" rx="2.5671531270254406" ry="2.5671531270254406" x="46.252965042733614" y="82.72760019746453" width="13.816330875325345" height="31.03731757736546" fill="#734f96"/>
  <rect stroke="none" rx="2.5671531270254406" ry="2.5671531270254406" x="69.35734318596258" y="82.72760019746453" width="28.095621856771032" height="31.03731757736546" fill="#734f96"/>
  <rect stroke="none" rx="2.5671531270254406" ry="2.5671531270254406" x="46.252965042733614" y="124.6395529295609" width="34.15262333775502" height="31.03731757736546" fill="#734f96"/>
  <rect stroke="none" rx="2.5671531270254406" ry="2.5671531270254406" x="89.69363564839225" y="124.6395529295609" width="34.15262333775502" height="31.03731757736546" fill="#734f96"/>
  <polygon stroke-width="5.134306254050881" stroke-linejoin="round" fill="#734f96" stroke="#734f96" points="135.701459381076,127.206706056586 135.701459381076,153.109717379901 145.957772840315,153.109717379901 158.418995881874,160.811176760977 167.835082225170,160.811176760977 167.835082225170,119.505246675510 158.418995881874,119.505246675510 145.957772840315,127.206706056586"/>
  <rect stroke="none" rx="2.5671531270254406" ry="2.5671531270254406" x="46.252965042733614" y="166.5515056616573" width="13.816330875325345" height="31.03731757736546" fill="#734f96"/>
  <rect stroke="none" rx="2.5671531270254406" ry="2.5671531270254406" x="69.35734318596258" y="166.5515056616573" width="28.095621856771032" height="31.03731757736546" fill="#734f96"/>
  <polygon stroke-width="5.134306254050881" stroke-linejoin="round" fill="#734f96" stroke="#734f96" points="46.5483751358218,211.030611520779 36.3588951282008,227.517536500797 36.3588951282008,247.808257998825 107.347034957266,247.808257998825 107.347034957266,227.517536500797 97.1575549496454,211.030611520779"/>
</svg>
