<?xml version="1.0" encoding="UTF-8" standalone="no"?>
<!-- Created with Inkscape (http://www.inkscape.org/) -->

<svg
   width="366.76099mm"
   height="69.805mm"
   viewBox="0 0 366.76099 69.805"
   version="1.1"
   id="svg1"
   inkscape:version="1.3.2 (091e20ef0f, 2023-11-25)"
   sodipodi:docname="full_plus_small_logo.svg"
   xmlns:inkscape="http://www.inkscape.org/namespaces/inkscape"
   xmlns:sodipodi="http://sodipodi.sourceforge.net/DTD/sodipodi-0.dtd"
   xmlns:xlink="http://www.w3.org/1999/xlink"
   xmlns="http://www.w3.org/2000/svg"
   xmlns:svg="http://www.w3.org/2000/svg">
  <sodipodi:namedview
     id="namedview1"
     pagecolor="#505050"
     bordercolor="#eeeeee"
     borderopacity="1"
     inkscape:showpageshadow="0"
     inkscape:pageopacity="0"
     inkscape:pagecheckerboard="true"
     inkscape:deskcolor="#d1d1d1"
     inkscape:document-units="mm"
     inkscape:zoom="0.72871773"
     inkscape:cx="618.20919"
     inkscape:cy="363.65247"
     inkscape:window-width="1920"
     inkscape:window-height="1022"
     inkscape:window-x="1919"
     inkscape:window-y="0"
     inkscape:window-maximized="1"
     inkscape:current-layer="text1749-2-8-7-5-7-84"
     inkscape:export-bgcolor="#00000000" />
  <defs
     id="defs1">
    <radialGradient
       inkscape:collect="always"
       xlink:href="#linearGradient85783"
       id="radialGradient88717-3-2-0-3-4-1"
       cx="105.32675"
       cy="55.141571"
       fx="105.32675"
       fy="55.141571"
       r="76.598824"
       gradientTransform="matrix(1.8681401,0,0,0.28136892,-37.574933,72.156165)"
       gradientUnits="userSpaceOnUse" />
    <linearGradient
       inkscape:collect="always"
       id="linearGradient85783">
      <stop
         style="stop-color:#000000;stop-opacity:0"
         offset="0"
         id="stop85779" />
      <stop
         style="stop-color:#000000;stop-opacity:0;"
         offset="1"
         id="stop85781" />
    </linearGradient>
    <radialGradient
       inkscape:collect="always"
       xlink:href="#linearGradient85783"
       id="radialGradient1"
       cx="105.32675"
       cy="55.141571"
       fx="105.32675"
       fy="55.141571"
       r="76.598824"
       gradientTransform="matrix(1.8681401,0,0,0.28136892,27.451125,241.52477)"
       gradientUnits="userSpaceOnUse" />
    <radialGradient
       inkscape:collect="always"
       xlink:href="#linearGradient85783"
       id="radialGradient2"
       cx="105.32675"
       cy="55.141571"
       fx="105.32675"
       fy="55.141571"
       r="76.598824"
       gradientTransform="matrix(1.8681401,0,0,0.28136892,27.451125,241.52477)"
       gradientUnits="userSpaceOnUse" />
    <radialGradient
       inkscape:collect="always"
       xlink:href="#linearGradient85783"
       id="radialGradient4"
       cx="105.32675"
       cy="55.141571"
       fx="105.32675"
       fy="55.141571"
       r="76.598824"
       gradientTransform="matrix(1.8681401,0,0,0.28136892,27.451125,241.52477)"
       gradientUnits="userSpaceOnUse" />
    <radialGradient
       inkscape:collect="always"
       xlink:href="#linearGradient85783"
       id="radialGradient88717-3-2-0-3-4-7-9"
       cx="105.32675"
       cy="55.141571"
       fx="105.32675"
       fy="55.141571"
       r="76.598824"
       gradientTransform="matrix(1.2133651,0,0,0.18275034,-87.956077,77.224315)"
       gradientUnits="userSpaceOnUse" />
    <radialGradient
       inkscape:collect="always"
       xlink:href="#linearGradient85783"
       id="radialGradient8"
       cx="105.32675"
       cy="55.141571"
       fx="105.32675"
       fy="55.141571"
       r="76.598824"
       gradientTransform="matrix(1.2133651,0,0,0.18275034,35.083533,242.94704)"
       gradientUnits="userSpaceOnUse" />
    <radialGradient
       inkscape:collect="always"
       xlink:href="#linearGradient85783"
       id="radialGradient10"
       cx="105.32675"
       cy="55.141571"
       fx="105.32675"
       fy="55.141571"
       r="76.598824"
       gradientTransform="matrix(1.2133651,0,0,0.18275034,35.083533,242.94704)"
       gradientUnits="userSpaceOnUse" />
    <radialGradient
       inkscape:collect="always"
       xlink:href="#linearGradient85783"
       id="radialGradient12"
       cx="105.32675"
       cy="55.141571"
       fx="105.32675"
       fy="55.141571"
       r="76.598824"
       gradientTransform="matrix(1.2133651,0,0,0.18275034,35.083533,242.94704)"
       gradientUnits="userSpaceOnUse" />
  </defs>
  <g
     inkscape:label="Layer 1"
     inkscape:groupmode="layer"
     id="layer1"
     transform="translate(58.472916,-52.122915)">
    <g
       id="text1749-2-8-7-5-7-84"
       style="font-size:47.4507px;line-height:1.25;stroke:url(#radialGradient88717-3-2-0-3-4-1);stroke-width:0.495057"
       aria-label="{PlasmaFAIR}">
      <path
         style="font-family:'Source Serif Pro';-inkscape-font-specification:'Source Serif Pro';stroke-opacity:0"
         d="m 16.339942,89.189673 c 3.985858,0.521958 5.646633,1.992929 5.646633,4.365464 0,2.562338 -1.99293,5.741535 -1.99293,9.679943 0,3.74861 2.70469,5.74153 7.212507,5.74153 h 2.135281 v -1.89802 l -1.281169,-0.14236 c -3.274098,-0.3796 -4.602718,-1.13881 -4.602718,-3.89095 0,-3.606256 1.043916,-7.070157 1.043916,-8.968185 0,-3.036845 -1.32862,-5.172126 -4.412915,-5.836436 3.084295,-0.66431 4.412915,-2.799591 4.412915,-5.836436 0,-1.898028 -1.043916,-5.361929 -1.043916,-8.968182 0,-2.75214 1.32862,-3.511352 4.602718,-3.890957 l 1.281169,-0.142352 v -1.898028 h -2.135281 c -4.507817,0 -7.212507,1.992929 -7.212507,5.741534 0,3.938408 1.99293,7.117605 1.99293,9.679943 0,2.372535 -1.660775,3.843506 -5.646633,4.365464 z"
         id="path5" />
      <path
         style="font-family:'Source Serif Pro';-inkscape-font-specification:'Source Serif Pro';fill:#ca0020"
         d="m 44.762904,71.870168 c 5.694084,0 8.208971,2.657239 8.208971,7.259957 0,4.460366 -2.277634,7.544661 -8.019168,7.544661 h -3.131746 v -2.277633 c 0,-4.223113 0,-8.446225 0.0949,-12.526985 z m -11.910125,-0.237253 4.365464,0.521957 c 0.0949,4.08076 0.0949,8.16152 0.0949,12.242281 v 2.325084 c 0,4.128211 0,8.256421 -0.0949,12.24228 l -4.365464,0.521958 v 1.945475 h 13.475998 v -1.945475 l -4.412915,-0.521958 c -0.0949,-3.41645 -0.0949,-6.643098 -0.0949,-10.059548 h 2.467436 c 9.727393,0 13.381097,-4.460366 13.381097,-9.774844 0,-5.551732 -4.033309,-9.442689 -12.052477,-9.442689 H 32.852779 Z m 27.046932,29.799035 h 11.767774 v -1.708222 l -3.796056,-0.66431 c -0.04745,-2.514887 -0.0949,-5.077224 -0.0949,-7.592111 V 73.483492 l 0.189803,-6.737999 -0.66431,-0.379606 -7.402309,2.135281 v 1.660775 l 3.890958,0.474507 v 20.830857 c 0,2.514887 -0.04745,5.029774 -0.0949,7.592111 l -3.796056,0.66431 z m 32.219029,0.47451 c 1.660775,0 2.989394,-0.61686 4.128211,-2.467436 l -0.949014,-1.043915 c -0.521958,0.616859 -1.043915,1.043915 -1.850577,1.043915 -1.043916,0 -1.708225,-0.759211 -1.708225,-2.799591 V 86.532434 c 0,-5.978788 -2.372535,-8.256422 -7.354859,-8.256422 -4.839971,0 -8.351323,2.277634 -9.252886,5.883887 0.142352,1.233718 0.901563,1.945479 2.230183,1.945479 1.281169,0 2.04038,-0.806662 2.467436,-2.277634 l 0.901564,-3.084295 c 0.996464,-0.237254 1.850577,-0.284704 2.562337,-0.284704 3.131746,0 4.460366,1.138816 4.460366,5.741534 v 1.186268 c -1.898028,0.427056 -3.890957,1.043915 -5.361929,1.565873 -6.405844,2.325084 -7.876816,4.460365 -7.876816,7.165055 0,3.938405 2.894493,5.931335 6.358394,5.931335 2.799591,0 4.365464,-1.23372 6.975252,-3.796053 0.379606,2.230183 1.99293,3.653703 4.270563,3.653703 z M 78.737643,95.405715 c 0,-1.423521 0.521958,-3.226648 4.650169,-4.839972 0.996464,-0.379605 2.70469,-0.949014 4.365464,-1.423521 v 7.259957 c -2.894493,2.087831 -3.796056,2.514887 -5.219577,2.514887 -2.182732,0 -3.796056,-0.996464 -3.796056,-3.511351 z m 27.284197,6.643095 c 6.12114,0 9.25288,-3.179194 9.25288,-6.785447 0,-2.989394 -1.80312,-5.219577 -6.54819,-6.975253 l -1.47098,-0.521958 c -3.22664,-1.186267 -4.36546,-1.992929 -4.36546,-4.08076 0,-1.945479 1.51842,-3.226647 4.41291,-3.226647 1.13882,0 2.23019,0.284704 3.2741,0.806661 l 0.75921,3.796056 h 2.46744 l 0.1898,-4.839971 c -2.04038,-1.233718 -4.08076,-1.945479 -6.64309,-1.945479 -5.31448,0 -8.256426,3.226648 -8.256426,6.690549 0,3.226647 2.277636,5.124675 5.741536,6.405844 l 2.18273,0.806662 c 2.98939,1.043916 4.41292,2.087831 4.41292,4.128211 0,2.135281 -1.70823,3.606253 -5.31448,3.606253 -1.47097,0 -2.70469,-0.237253 -3.84351,-0.759211 l -0.90156,-4.128211 h -2.609791 l 0.189803,5.219581 c 2.325088,1.18626 4.412918,1.80312 7.070158,1.80312 z m 13.00148,-0.61686 h 11.00856 v -1.708222 l -3.27409,-0.66431 c -0.0475,-2.372534 -0.0949,-5.504281 -0.0949,-7.592111 v -6.927802 c 2.32509,-1.99293 4.12822,-2.847042 6.31095,-2.847042 2.79959,0 3.89095,1.423521 3.89095,5.741534 v 4.03331 c 0,2.182732 -0.0474,5.267027 -0.0949,7.592111 l -3.51135,0.66431 v 1.708222 h 11.00856 v -1.708222 l -3.32155,-0.66431 c -0.0474,-2.372534 -0.0949,-5.409379 -0.0949,-7.592111 v -4.412915 c 0,-0.854113 -0.0474,-1.660775 -0.0949,-2.372535 2.41999,-2.182732 4.36547,-2.989394 6.3584,-2.989394 2.75214,0 3.98585,1.233718 3.98585,5.646633 v 4.128211 c 0,2.182732 -0.0474,5.267027 -0.0949,7.592111 l -3.51135,0.66431 v 1.708222 h 11.00856 v -1.708222 l -3.32155,-0.66431 c -0.0474,-2.372534 -0.0949,-5.409379 -0.0949,-7.592111 v -4.887422 c 0,-5.883887 -2.23018,-8.303873 -6.07369,-8.303873 -3.08429,0 -6.16859,1.518423 -8.58857,4.460366 -0.80667,-3.131746 -2.65724,-4.460366 -5.64664,-4.460366 -2.94194,0 -6.07369,1.803127 -8.30387,4.318014 l -0.3796,-3.843507 -0.71176,-0.474507 -6.6431,2.894493 v 1.660774 l 3.7486,0.427057 c 0.0949,1.898028 0.14235,3.321549 0.14235,5.931337 v 2.277634 c 0,2.135281 -0.0474,5.219577 -0.0949,7.592111 l -3.51135,0.66431 z m 60.59459,0.47451 c 1.66078,0 2.9894,-0.61686 4.12821,-2.467436 l -0.94901,-1.043915 c -0.52196,0.616859 -1.04392,1.043915 -1.85058,1.043915 -1.04391,0 -1.70822,-0.759211 -1.70822,-2.799591 V 86.532434 c 0,-5.978788 -2.37254,-8.256422 -7.35486,-8.256422 -4.83997,0 -8.35132,2.277634 -9.25289,5.883887 0.14235,1.233718 0.90157,1.945479 2.23019,1.945479 1.28116,0 2.04038,-0.806662 2.46743,-2.277634 l 0.90156,-3.084295 c 0.99647,-0.237254 1.85058,-0.284704 2.56234,-0.284704 3.13175,0 4.46037,1.138816 4.46037,5.741534 v 1.186268 c -1.89803,0.427056 -3.89096,1.043915 -5.36193,1.565873 -6.40585,2.325084 -7.87682,4.460365 -7.87682,7.165055 0,3.938405 2.8945,5.931335 6.3584,5.931335 2.79959,0 4.36546,-1.23372 6.97525,-3.796053 0.37961,2.230183 1.99293,3.653703 4.27056,3.653703 z m -13.38109,-6.500745 c 0,-1.423521 0.52195,-3.226648 4.65016,-4.839972 0.99647,-0.379605 2.70469,-0.949014 4.36547,-1.423521 v 7.259957 c -2.89449,2.087831 -3.79606,2.514887 -5.21958,2.514887 -2.18273,0 -3.79605,-0.996464 -3.79605,-3.511351 z"
         id="path6" />
      <path
         style="font-family:'Source Serif Pro';-inkscape-font-specification:'Source Serif Pro';fill:#0571b0"
         d="m 186.11869,71.632915 4.36546,0.521957 c 0.0949,4.08076 0.0949,8.16152 0.0949,12.242281 v 2.325084 c 0,4.128211 0,8.256421 -0.0949,12.24228 l -4.36546,0.521958 v 1.945475 h 13.476 v -1.945475 l -4.41292,-0.521958 c -0.0949,-3.890957 -0.0949,-7.924267 -0.0949,-12.621886 h 7.35486 l 0.66431,4.934873 h 2.18273 V 79.604632 h -2.18273 l -0.66431,4.507816 h -7.35486 c 0,-3.890957 0,-8.019168 0.0949,-12.052477 h 11.15092 l 1.04391,6.026239 h 2.70469 l -0.33215,-8.398774 h -23.63045 z m 36.63194,3.131746 4.74507,14.140308 h -9.53759 z m -14.42501,26.667289 h 10.86621 v -1.945475 l -4.65017,-0.616859 2.65724,-7.734464 h 11.00856 l 2.60979,7.781914 -4.65017,0.569409 v 1.945475 h 12.90659 v -1.945475 l -3.5588,-0.427057 -10.107,-29.609236 h -2.98939 l -10.107,29.419434 -3.98586,0.616859 z m 32.88331,-29.799035 4.36546,0.521957 c 0.0949,4.08076 0.0949,8.16152 0.0949,12.242281 v 2.325084 c 0,4.128211 0,8.256421 -0.0949,12.24228 l -4.36546,0.521958 v 1.945475 h 13.42855 v -1.945475 l -4.36547,-0.521958 c -0.0949,-4.08076 -0.0949,-8.16152 -0.0949,-12.24228 v -2.325084 c 0,-4.128211 0,-8.256422 0.0949,-12.242281 l 4.36547,-0.521957 v -1.945479 h -13.42855 z m 30.74806,0.237253 c 4.88742,0 6.97525,2.182732 6.97525,6.168591 0,3.796056 -2.37253,6.548196 -7.49721,6.548196 h -3.6537 c 0,-4.507816 0,-8.541125 0.0949,-12.716787 z m -13.14384,-0.237253 4.36546,0.521957 c 0.0949,4.08076 0.0949,8.16152 0.0949,12.242281 v 2.325084 c 0,4.128211 0,8.256421 -0.0949,12.24228 l -4.36546,0.521958 v 1.945475 h 13.42854 v -1.945475 l -4.36546,-0.521958 c -0.0949,-3.796056 -0.0949,-7.687013 -0.0949,-12.24228 h 2.32508 c 3.84351,0 5.59918,0.71176 6.50075,4.555267 l 1.89803,7.592112 c 0.5694,2.277634 1.89802,3.036844 4.88742,3.036844 1.47097,0 2.60979,-0.1898 3.5588,-0.47451 v -1.945475 l -3.6537,-0.427057 -2.04038,-7.022703 c -1.09137,-3.748605 -2.79959,-5.45683 -5.59919,-6.026239 5.31448,-0.949014 7.97172,-4.318013 7.97172,-8.019168 0,-5.219577 -4.27056,-8.303872 -11.53052,-8.303872 h -13.28619 z"
         id="path7" />
      <path
         style="font-family:'Source Serif Pro';-inkscape-font-specification:'Source Serif Pro';stroke-opacity:0"
         d="m 302.04078,87.291645 c -3.98585,-0.521958 -5.64663,-1.992929 -5.64663,-4.365464 0,-2.562338 1.99293,-5.741535 1.99293,-9.679943 0,-3.748605 -2.70469,-5.741534 -7.21251,-5.741534 h -2.13528 v 1.898028 l 1.28117,0.142352 c 3.2741,0.379605 4.60272,1.138817 4.60272,3.890957 0,3.606253 -1.04392,7.070154 -1.04392,8.968182 0,3.036845 1.32862,5.172126 4.41292,5.836436 -3.0843,0.66431 -4.41292,2.799591 -4.41292,5.836436 0,1.898028 1.04392,5.361929 1.04392,8.968185 0,2.75214 -1.32862,3.51135 -4.60272,3.89095 l -1.28117,0.14236 v 1.89802 h 2.13528 c 4.50782,0 7.21251,-1.99292 7.21251,-5.74153 0,-3.938408 -1.99293,-7.117605 -1.99293,-9.679943 0,-2.372535 1.66078,-3.843506 5.64663,-4.365464 z"
         id="path8" />
    </g>
    <path
       id="path388577"
       style="fill:none;stroke:#000000;stroke-width:2.565"
       d="M 6.0495663,87.671242 A 31.619991,31.619991 0 0 1 -25.570425,119.29123 31.619991,31.619991 0 0 1 -57.190416,87.671242 31.619991,31.619991 0 0 1 -25.570425,56.05125 31.619991,31.619991 0 0 1 6.0495663,87.671242 Z" />
    <g
       id="text1749-2-8-7-5-7-8-8"
       style="font-size:30.8195px;line-height:1.25;stroke:url(#radialGradient88717-3-2-0-3-4-7-9);stroke-width:0.321542"
       aria-label="{PF}">
      <path
         style="font-family:'Source Serif Pro';-inkscape-font-specification:'Source Serif Pro';stroke-opacity:0"
         d="m -52.938103,88.287636 c 2.588838,0.339015 3.66752,1.294419 3.66752,2.835394 0,1.664253 -1.294419,3.72916 -1.294419,6.287178 0,2.434741 1.756712,3.729162 4.684564,3.729162 h 1.386878 v -1.232782 l -0.832127,-0.09246 c -2.126545,-0.246556 -2.989491,-0.739668 -2.989491,-2.527199 0,-2.342282 0.678029,-4.592105 0.678029,-5.824885 0,-1.972448 -0.862946,-3.359326 -2.866214,-3.790799 2.003268,-0.431473 2.866214,-1.81835 2.866214,-3.790798 0,-1.23278 -0.678029,-3.482604 -0.678029,-5.824886 0,-1.787531 0.862946,-2.280643 2.989491,-2.527199 l 0.832127,-0.09246 v -1.23278 h -1.386878 c -2.927852,0 -4.684564,1.294419 -4.684564,3.729159 0,2.558019 1.294419,4.622925 1.294419,6.287178 0,1.540975 -1.078682,2.49638 -3.66752,2.835394 z"
         id="path1" />
      <path
         style="font-family:'Source Serif Pro';-inkscape-font-specification:'Source Serif Pro';fill:#ca0020"
         d="m -34.477227,77.038519 c 3.69834,0 5.331774,1.725892 5.331774,4.715383 0,2.897033 -1.479336,4.900301 -5.208496,4.900301 h -2.034087 v -1.479336 c 0,-2.742936 0,-5.485871 0.06164,-8.136348 z m -7.735694,-0.154098 2.835394,0.339015 c 0.06164,2.650477 0.06164,5.300954 0.06164,7.951431 v 1.510155 c 0,2.681297 0,5.362593 -0.06164,7.951431 l -2.835394,0.339015 v 1.263599 h 8.752738 v -1.263599 l -2.866214,-0.339015 c -0.06164,-2.219004 -0.06164,-4.31473 -0.06164,-6.533734 h 1.602614 c 6.317998,0 8.691099,-2.897033 8.691099,-6.348817 0,-3.605881 -2.619657,-6.13308 -7.828153,-6.13308 h -8.290445 z"
         id="path2" />
      <path
         style="font-family:'Source Serif Pro';-inkscape-font-specification:'Source Serif Pro';fill:#0571b0"
         d="m -24.060213,76.884421 2.835394,0.339015 c 0.06164,2.650477 0.06164,5.300954 0.06164,7.951431 v 1.510155 c 0,2.681297 0,5.362593 -0.06164,7.951431 l -2.835394,0.339015 v 1.263599 h 8.752738 v -1.263599 l -2.866214,-0.339015 c -0.06164,-2.527199 -0.06164,-5.146856 -0.06164,-8.197987 h 4.777023 l 0.431473,3.205228 h 1.417697 v -7.581597 h -1.417697 l -0.431473,2.927853 h -4.777023 c 0,-2.527199 0,-5.208496 0.06164,-7.828153 h 7.242583 l 0.678029,3.914076 h 1.7567113 L -8.7121022,75.620822 H -24.060213 Z"
         id="path3" />
      <path
         style="font-family:'Source Serif Pro';-inkscape-font-specification:'Source Serif Pro';stroke-opacity:0"
         d="m 1.7973621,87.054856 c -2.58883801,-0.339014 -3.6675205,-1.294419 -3.6675205,-2.835394 0,-1.664253 1.29441899,-3.729159 1.29441899,-6.287178 0,-2.43474 -1.75671149,-3.729159 -4.68456399,-3.729159 h -1.3868775 v 1.23278 l 0.8321265,0.09246 c 2.1265455,0.246556 2.9894915,0.739668 2.9894915,2.527199 0,2.342282 -0.678029,4.592106 -0.678029,5.824886 0,1.972448 0.862946,3.359325 2.86621349,3.790798 -2.00326749,0.431473 -2.86621349,1.818351 -2.86621349,3.790799 0,1.23278 0.678029,3.482603 0.678029,5.824885 0,1.787531 -0.862946,2.280643 -2.9894915,2.527199 l -0.8321265,0.09246 v 1.232782 h 1.3868775 c 2.9278525,0 4.68456399,-1.294421 4.68456399,-3.729162 0,-2.558018 -1.29441899,-4.622925 -1.29441899,-6.287178 0,-1.540975 1.07868249,-2.496379 3.6675205,-2.835394 z"
         id="path4" />
    </g>
  </g>
</svg>
